<svg width="41" height="40" viewBox="0 0 41 40" fill="none" xmlns="http://www.w3.org/2000/svg">
<rect x="0.75" width="40" height="40" rx="10" fill="#4038FF"/>
<g clip-path="url(#clip0_4026_10542)">
<path d="M21.0011 31.9606L23.7881 16.2195C26.4446 16.2195 27.2825 16.5121 27.4035 17.7061C27.4035 17.7061 29.1856 17.0389 30.0844 15.6836C26.577 14.0514 23.0529 13.9778 23.0529 13.9778L20.9965 16.4931L21.0011 16.4928L18.9448 13.9774C18.9448 13.9774 15.4206 14.0511 11.9137 15.6833C12.8117 17.0385 14.5945 17.7058 14.5945 17.7058C14.7162 16.5117 15.553 16.2191 18.1917 16.2172L21.0011 31.9606Z" fill="white"/>
<path d="M21 13.2513C23.8352 13.2295 27.0805 13.6917 30.4026 15.1458C30.8466 14.3432 30.9607 13.9885 30.9607 13.9885C27.3292 12.5456 23.9283 12.0518 20.9996 12.0394C18.0712 12.0518 14.6704 12.5457 11.0393 13.9885C11.0393 13.9885 11.2013 14.4254 11.5971 15.1458C14.9186 13.6917 18.1643 13.2295 20.9996 13.2513H21Z" fill="white"/>
</g>
<defs>
<clipPath id="clip0_4026_10542">
<rect width="20" height="20" fill="white" transform="translate(11 12)"/>
</clipPath>
</defs>
</svg>
